/* XPM */
static char *_540562441614[] = {
/* columns rows colors chars-per-pixel */
"64 64 123 2 ",
"   c #020000",
".  c #0E0400",
"X  c #100700",
"o  c #130900",
"O  c #190F04",
"+  c #1B1106",
"@  c #1D1309",
"#  c #270B02",
"$  c #350F00",
"%  c #2D1301",
"&  c #20160B",
"*  c #2F1308",
"=  c #231A0E",
"-  c #341A04",
";  c #3E1803",
":  c #301408",
">  c #3C140D",
",  c #34180C",
"<  c #251B11",
"1  c #3F1710",
"2  c #381C10",
"3  c #3B2106",
"4  c #3F2317",
"5  c #431D01",
"6  c #431B14",
"7  c #471F18",
"8  c #462005",
"9  c #4B2405",
"0  c #4E2906",
"q  c #4A250C",
"w  c #502707",
"e  c #522907",
"r  c #532C09",
"t  c #56300D",
"y  c #5B320F",
"u  c #422813",
"i  c #482E13",
"p  c #412519",
"a  c #4A221B",
"s  c #4F351A",
"d  c #5A3412",
"f  c #5F3916",
"g  c #5F391D",
"h  c #673602",
"j  c #6D3C05",
"k  c #60380F",
"l  c #653C14",
"z  c #683F17",
"x  c #653C1A",
"c  c #552D26",
"v  c #572F28",
"b  c #52362A",
"n  c #5C342D",
"m  c #5F3730",
"M  c #613932",
"N  c #74430C",
"B  c #6B4219",
"V  c #7E4C15",
"C  c #70471E",
"Z  c #71481F",
"A  c #6B4623",
"S  c #734B22",
"D  c #784F26",
"F  c #795027",
"G  c #7A5129",
"H  c #6A4F30",
"J  c #6F5534",
"K  c #725535",
"L  c #735836",
"P  c #785A37",
"I  c #765B3A",
"U  c #7A5D3B",
"Y  c #7E603F",
"T  c #7B5F40",
"R  c #7F6342",
"E  c #7F6748",
"W  c #84643D",
"Q  c #88673E",
"!  c #8D6D3F",
"~  c #846642",
"^  c #886740",
"/  c #866944",
"(  c #8B6C45",
")  c #866C4A",
"_  c #8B6E4A",
"`  c #916E46",
"'  c #906F49",
"]  c #8E7044",
"[  c #87704E",
"{  c #8E714C",
"}  c #927245",
"|  c #93744D",
" . c #98764D",
".. c #96794F",
"X. c #98784E",
"o. c #886D51",
"O. c #8D7452",
"+. c #8E7850",
"@. c #8C7758",
"#. c #8D7858",
"$. c #937652",
"%. c #987751",
"&. c #957954",
"*. c #9A7C54",
"=. c #92755B",
"-. c #957A5A",
";. c #9B7E5A",
":. c #9E7F60",
">. c #9E8056",
",. c #9D815B",
"<. c #A2845D",
"1. c #AC875E",
"2. c #9D8261",
"3. c #A38662",
"4. c #A58964",
"5. c #A98C65",
"6. c #A78C69",
"7. c #AA8E6A",
"8. c #AB9067",
"9. c #AD916B",
"0. c #B1926B",
"q. c #AE9370",
"w. c #B19673",
/* pixels */
" .! ;.U ~ ~ ( { &. .} *.<.X.X.&.<.<. .<.*.*.*.,.*.>.>.,.*.<.<.<.<.>.;.2.,.$.>.&.,.-.,.$.$.Q ( ( } W | ( ~ |  .{ ^ ] ( _ I _ _ | ",
"| ! ;.~ o.=.&.;.3.,.*.4.8.<.<.4.<.1.4.5.8.4.<.3.3.3.4.4.7.7.5.0.8.8.6.w.q.6.5.,.w.7.6.6.4.,.*.;.*.| ,.&.o.;.<.&.$.*.$.{ K | | %.",
"| ! ;.T ) =.&.2.2.,.;.<.4.<.<.6.<.<.7.;.0.3.5.4.5.4.4.5.5.5.5.8.<.>.3.9.7.6.5.<.9.6.6.6.,.<.$.;.&.&.3.;.$.;.<.*.$.&.+.[ L | | *.",
" .( ;.I U o.{ =.o.{ { &.*.$.| $.| *.:.%.3.%.3.<.<.;.*.;.;.;.;.;.<.&.2.4.2.;.,.&.;.;.,.-.[ $.( &._ _ $.O.( _ *.^ / ) R R J ..X.*.",
" .` :.@ + + @ @ @ @ @ @ + @ + @ @ @ @ @ + @ + + + + + + + O O O + + + O + O O + + + + + + + + + + + + + @ + + + @ + @ + @ *. .*.",
" .! 3.+ @ @ @ @ & @ @ @ @ @ + & @ + + @ + @ + + + + O O O O O O O O + O O + O + * , 2 2 2 , * * + + O + O + + + @ + + @ @ &. .*.",
" .! <.O O + @ @ @ @ @ + + @ + + & + + @ @ @ + & & & + & & & & & & + @ @ & @ & & * 2 p p 4 2 * * + + + @ + O O + O O O O O  .X.*.",
" .! 4.+ + + + + @ @ @ @ @ @ & & @ @ @ @ @ @ & @ & + + @ @ @ + @ & & & @ O + O O 0 t B A f d t 0 + O O + O O O O O + + + + | *.<.",
"} | 5.+ O O O + O + + + + + O + + + O O + + + & + + + O O O O O O O O O O O O O e 5 f x d 0 ; q + O O O + + + + O + + + O ..*.<.",
"}  .7.o > 6 7 > > O > 6 a > > o > 6 a 1 > O > 6 a 6 > O > 6 7 6 > O > 6 7 > > o q 5 r d e q 5 q o o o O O O o o o o o o o ..*.<.",
"`  .4.X 6 7 c 6 > . > a c 6 > X > a v 6 , X > a c 6 > o > 7 v 6 6 X > 7 c 6 > X : 2 p p 2 : # # @ + @ @ @ @ @ @ + + + + + ..*.>.",
"} *.*.X l S D l y o y Z D l k o y S G l y o k Z D k k o y Z G l y o y S S z y o : 2 b b p 2 : * @ + + + O O @ @ + + + @ + ..*.| ",
"`  .| X > c n 6 > X > c m 6 > X > c n 6 > X > v n 7 > o > v n 6 > X > v n 7 > X : 2 b b p 2 : * @ @ & = @ < @ @ = @ @ @ & { ..{ ",
"Q  .%.X > v M 6 6 . > c m 6 > . > c n 6 > . 6 c M 7 > . > c M 6 > X > c n 6 > X * 2 b b 4 2 : * O O O O O O @ @ @ @ @ @ & $.$...",
"( *.3.X > v n 6 > X > c n 6 > X > v m 6 > o > c n 6 1 . > v n 7 6 X > v n 6 6 X : 2 b b p 2 : * O O O O O O O O + + O O + -.>.>.",
"` *.4.o > v M 7 > X > c M 7 > o > v M 6 1 o > c n 6 > O > v m 6 > o > c M 6 > X : 2 b b 4 2 : *                           +.,.,.",
"!  .;.X > v m 6 > X > v n 6 > X > c m 6 6 X > v M 6 6 X > v n 6 6 X > c m 6 > X * 4 b b 4 , * * @ @ @ @ @ & @ @ & & @ @ @ ( *.*.",
"Q ..;.o 1 v m 7 6 o 6 c n 6 > o > v m 6 > X > v M 6 > o > v n 6 > o > c n 6 > o * , b b 4 4 * * < = @ = & & & & < & < = < _ | | ",
"Q +.;.X > c M 7 > X > c n 7 > X > c M 6 > X 6 c m 6 > X > n M 6 > X > v n 6 > X * , b b 4 4 * * @ @ @ @ @ & @ @ @ @ @ @ @ [ / ( ",
"~ ..;.X > v m 6 > o 6 v M 6 > o > v m 7 > o > c m 6 6 X > v M 6 > o > b m 6 1 o * 3 b b 4 , * * @ @ @ @ @ @ @ @ & @ @ & & { ( ] ",
"^ +.$.X > c M 6 > . > v M 6 1 . > c M 6 > . 6 c m 7 > X > v m 7 > X > c m 6 1 X : 2 b b 4 2 * * + O @ @ + @ @ @ @ @ O + @ ..{ ] ",
"( -.$.. 1 v M 6 > X > b M 6 1 o > c n 7 > . > v n 6 > X $ v n 6 > X > c m 1 1 X : 2 b b 4 , , * @ @ @ @ @ @ @ @ @ + @ + + $.$.( ",
"/ -.%.X > c m 7 > o > c m 6 1 o > c n 6 6 X > c n 6 6 o 1 v n 7 6 X > v m 6 1 o * 2 b b 4 4 * * @ + @ + O @ + + @ + + + + O.*.{ ",
"/ $.' X 6 c m 6 > o > c m 7 > o > c n 6 > X > v M 6 > X 1 v n 6 > X 6 v m 6 > o : 2 b b 4 2 * * @ @ @ @ @ @ @ + + @ @ @ + +.>.^ ",
"+.[ &.o > v M 6 > o > v m 6 1 o > v M 6 > o > c m 7 > o > c n 6 > X > c n 7 > o * , b b 4 2 * * & @ @ & & & & & & @ @ + @ ^  .( ",
"_ ) +.o > v n 6 > X 6 c m 6 > o > n n 7 > X 6 c m 6 > X > c m p 6 X > v m 6 > o 0 t B A g d t 0 O O O O O O O O O O O O + |  .( ",
"_ _ +.X k Z G l k o y C F l y o k S G l k o k S S l k o l Z G l y o k Z D l k o 0 ; d x t r - q + + + + + O + O O O + + O %.{ ( ",
"O.$.{ O > a v 6 > o > a c 6 1 O > a c 6 > o 6 a c 6 > O 1 a c 1 > o > 7 c 6 6 o q 8 t y 0 9 8 0 @ + @ + + + & @ + & + & +  .| _ ",
") o.{ X y B B l k X l l S l y o k l C k k X y B C l k o y B Z l y o y B B l y X * 2 p 4 2 * # # + + + O + + + + O O + + + %.{ | ",
"_ | | o 1 1 p 6 > o > 6 7 > > o > 6 6 6 > o 1 1 6 6 > o 1 1 6 1 1 o > 1 6 6 > o * , 4 4 2 , * * + + @ + + @ @ @ @ @ @ @ @ | _ { ",
"$.{ | Y Q ^ ..{ ` (  ._ *.;.*.,.*.<.<.<.<.&.*.%.&.*.&.*...>.,.+.>.<.&.&.>.$.*.*.;._ | >.] { [ +.{ { ( } | ^ ( _ ~ ) ) ( U  .| _ ",
"O.( $.~ { >.2.4.4.*.<.$.4.3.3.<.1.5.<.8.<.3.6.4.7.5.3.7.<.8.6.4.1.0.<.4.9.5.5.7.8.<.<.0.,.2.2.2.,.,.>.*.;.*.;.;.O.+.O.$.P &. .| ",
"| _ %.~ _ -.4.3.;.;.:.%.4.4.3.:.-.3.0.7.<.5.9.6.4.5.<.9.4.8.8.<.<.1.<.5.8.3.w.7.<.,.0.8.>.<.3.;.2.2.2.*.$.;.-.*.O.O.O.O.T | _ O.",
"$.| | K I ) o._ ~ ~ ~ ~ =.o._ o.{ _ $.%.' | %.| ` | { *.{ &.&.[ ] ! { { &.{ $.%...^ .. .~ _ / ( E ~ ~ P P ~ ~ U I I I T U | | $.",
"-.+.*.< < & = @ & & & & & & & & @ & & & & @ @ @ @ & @ @ + @ @ @ @ = & = & < < < = = = & = = = = < = < = = = = = < < < < < %.$.=.",
"#.$.,.@ @ @ @ @ @ w y y e w O e d d e 9 & @ @ @ @ @ @ @ @ @ @ @ @ @ @ @ @ @ @ @ @ @ & @ & & & & @ & & & & & = & & & & & = %.&.-.",
"@.-.;.@ + @ + @ & y x x l e X y x x y w + @ O + + + + + + + O + O @ O + + + O + + + + + + + + + O O + + + + + + @ @ @ + @ %.$.:.",
"@.O.,.+ @ @ @ @ & j V V j h o j V V N h @ + @ + + + + + + + O o O O + O + O + + O O O O + + + + @ + O + + + + + + + + @ @ &.=.#.",
"@.O.,.o O O + @ + j x x y h X j x x y h + @ @ @ @ @ & @ @ @ @ @ & @ @ @ @ @ + & + @ @ + + + + + O + + @ + O O O O O O O O ;.$.=.",
"@.O.;.f 9 o x 9 O j V V j h X j W V N h & + & @ & & + + @ @ @ @ & @ & + + + + + + + + + O + + O + O O + O + O O + + + + + ;.O.@.",
"[ [ &.f 8 . f 5 X y x h e w O y h y r w # O + @ + + + O O O + + O O + O + O O O O O O O + O + + + O O + + + + O O + + + O %.$.O.",
"[ $.,.f 3 o f 5 X t x W y w X y h W h e X > ; - - O - 3 - - O - > - - O - 3 - - o - 3 - - o - 3 - - o - 3 - - o - 3 - * o &.$.@.",
"[ +.,.f 5 o f 5 X y h W y w X y y W w w o 3 i 3 - o 3 i 3 - X 3 i 3 - X 3 i 3 - . 3 i 3 - X 3 i 3 - . 3 i 3 - o 3 i 3 - X ;.o._ ",
"[ O.+.; $ . 5 $ X y y x y w X y l x e w X % - * % . % - % % . % - % % . % - % % . % - % % . % - % % . % - % % . % - % % . *.o.O.",
"o.+.-.A g X A g X y x x y w . y x x d e . i s i u . i s i u X i s i u X i s i u . i s i u X i s i u X i s i u . i s i u X *.$.O.",
") [ $.f 5 o f 5 o y x x y w X y x x y e X 3 i 3 - O 3 i 3 - o 3 i 3 - o 3 i 3 - O 3 i 3 - o 3 i 3 - O 3 i 3 - O 3 i 3 - o *.| o.",
"_ O.$.f 5 . f 5 X y x x y w o d x x t e o 3 i 3 - o 3 i 3 - o 3 i 3 - o 3 i 3 - X 3 i 3 - o 3 i 3 - X 3 i 3 - o 3 i 3 - X %.&.O.",
"_ $.+.f 5 O f 5 o y x x y e X y x x y e o 3 i 3 - o 3 i 3 - o 3 i - - O 3 i 3 - o 3 i 3 - o 3 i 3 - o 3 i 3 - o 3 i 3 - o %.&.O.",
"_ ;.#.f 5 o f 5 X y x x y w o y x x y w o ; i 3 - o 3 i 3 - o 3 i 3 - o 3 i 3 - X 3 i 3 - o 3 i 3 - o 3 i 3 - o 3 i 3 - o  .$.-.",
") $.-.f 5 o f 5 o d x x d w X y x x y w o % - % % o % - % % o % - % % o % - % % o % - % % o % - % % o % - % % o % - % % o %.| { ",
"/ { +.f 5 X f 5 . y x x y e o y x x y e o i s i u X i s i u . i s i u X i s i u X i s i u X i s i u X i s i u . i s i u X | ( { ",
"Q { -.f 5 X f 5 . y x x y w X y x x y e X 3 i 3 - X 3 i 3 - X 3 i 3 - X 3 i 3 - X 3 i 3 - X 3 i 3 - X 3 i 3 - . 3 i 3 - X ( ~ _ ",
"W _ O.f 5 o f 5 o y x x y w X y x x y e X 3 i 3 - o 3 i 3 - o 3 i 3 - o 3 i 3 - o 3 i 3 - o 3 i 3 - o 3 i 3 - o 3 i 3 - X ^ Q _ ",
"W { -.f 5 o f 5 o y x x y w o y x x y w o 3 i 3 - o 3 i 3 - o 3 i - - o 3 i 3 - o 3 i 3 - o 3 i 3 - o 3 i 3 - o 3 i 3 - o ( ^ _ ",
"W _ ;.f 5 o f 5 o y x x d w X y x x d e o 3 i 3 - o 3 i 3 - O 3 i 3 - O 3 i 3 - O 3 i - - o 3 i 3 - O 3 i 3 - o 3 i 3 - O ` ^ [ ",
"Q | >.f 5 X f 5 X y x x y w o y x x y e o 3 i 3 - X 3 i 3 - X 3 i 3 - o 3 i 3 - o 3 i 3 - X 3 i 3 - . 3 i 3 - o 3 i 3 - o ( _ | ",
"W | $.f 5 o f 5 o j W N j h # h V V N h X % - % % o % - % % o % - % % o % - % % o % - % % o % - % % o % - % % o % - % % o Q ( ) ",
"~ ( { f 5 o f 5 o j j W N h X j V V N h o i s i 4 O i s i 4 O i s i u O i s i u O i s i u o i s i 4 O i s i u O i s i 4 O / ^ / ",
"~ | &.f 5 o f 5 o y x x y e O y x x d e o 3 i 3 - o 3 i 3 - X 3 i 3 - . - i 3 - X 3 i 3 - X 3 i 3 - o 3 i ; - X 3 i 3 - o ( ( ( ",
"( { *.y 5 o d 5 o w y y e w X e y d e 0 X - 3 - - o - 3 - - O - 3 - - o - 3 - - o - 3 - - o - 3 - - o - 3 - - o - 3 - - o ( _ ( ",
" .| &.P _ _ ( } ..| |  .:. . .*. .| +.2.;.;.<.<.>.>.<...,.*.>.>.&.*.&.>.>.,.&.&.=.%.|  .| ..| [ ] { ] ( / /  ._ ( / ~ ~ P ( ( ` ",
" .{ &.I $.$.%.*.,.*.;.<.1.1.,.3.,.;.2.7.2.5.5.5.,.,.5.<.6.8.5.4.4.6.4.9.7.9.4.5.3.3.3.3.<.4.<.>.,.,.*.-.$.$.,.*.&.$.| ) K _ ( { ",
"` | X.Y ) o.$.,.3.>.,.<.4.,.<.3.3.:.3.5.3.4.4.8.<.,.5.<.4.4.4.8.9.q.4.6.4.4.<.8.6.3.6.3.<.,.<.,.4.*.-.$.{ $.;.%.$.$.| _ K { { { ",
"| &.| I T ) ( { ,.O.| *.*. .*.$.=.;.*.*.*.<.X.<.3.&.,.,.>.>.>.2.2.2.2.2.,.,.$.*.:.:.;.%.( ( _ $.*.~ ( [ ~ / ' ~ ~ ~ W Y H { _ { "
};
