/* XPM */
static char *_540563477084[] = {
/* columns rows colors chars-per-pixel */
"64 64 34 1 ",
"  c #7D7A75",
". c #807D73",
"X c #827E7A",
"o c #858175",
"O c #86817D",
"+ c #89847F",
"@ c #8B8A7F",
"# c #878380",
"$ c #8B8682",
"% c #8E8985",
"& c #8F8C88",
"* c #908C87",
"= c #928E8A",
"- c #949185",
"; c #96918D",
": c #98948E",
"> c #9C998E",
", c #979390",
"< c #9A9692",
"1 c #9E9995",
"2 c #9F9B98",
"3 c #A09B96",
"4 c #A29D9A",
"5 c #A5A196",
"6 c #A5A19D",
"7 c #A8A39E",
"8 c #A7A2A0",
"9 c #AAA5A1",
"0 c #AEA9A5",
"q c #B0ABA6",
"w c #B1ADA9",
"e c #B5B1AD",
"r c #B9B5B1",
"t c #C0BBB7",
/* pixels */
"46::==3<*++*$X==<414898<;;4::<:**X<73::<4:<<44<$39904403<91=tq34",
"1w;6043<*+,==<33==1838=$;<:=3554:3<4443=$<<1;=;67t0tt794;=<444<3",
"#,;4<4;;==3*&3=**=24<:<;=4480>353**4:=3::3<341;0ww897174;=+44$11",
"<:473444<=4<14$48<<249<44<6<XX.@..$$X*4487834009q009<*7=<<<90=<<",
"3$X:=<33344993,488;$<4004<;1,1*-**=;4:44:<444774080t7::8;=%4;4<3",
"1<*%+;<344834<=&:82<=3<838*:;35<=<=<44983=<3484<<;1408<====4<<=3",
"3*=%$;%=<4<=;<<$==:$====<80*;;8<<$*:334<=31334<=;<;34w<31=3944;;",
"<=$=%=%=<<,1;;4<;=;4483:<4w9,;<4:*=::33=*3<48<3;*<=1=<<<;<<39<=;",
"494,<*<<%====<443083wwt4233<=,=:4<<$X<2<=*:4944<==<343:<<;+==<*3",
"<9=*=$=<==<==$4e88q<9<4424<$$:,3<443X<<88$<43:4<443,<=<:;3<<*$13",
"343$3%*34=*=X%<3348488;<=<38=;===:3<3=<04*:24<:7943<$$<;41334*;1",
"4433<<43=$*=O$$=::3988<;%4==<::<*:83<<3<:2<443X<889999<<4<==t914",
"3w;8044<=#,==,1<*=<448;$=2,=<433$*2844<=$<<<<:=38rere994;=<484,<",
"$;;434=;==1=%2=%*=441,1;=2488893*<48848=,2<38<:9ww894344;=$84$2<",
";;48<444<;4124%48<2339<4414<=<83<;2<828888844007w9w91=4;<<<90=<=",
"<%X,=,33334993,388=$<4094<,<$==,$==;;283;<444775980e0<<8;=$3;4<<",
"<3*%+;<3744<43==:43,=3<838*:;<*$<<3=*;983*:<48313=34w8<;==%4<<==",
"4*=$$;$=<31=:<<$;=,$==,,<89%343O,144%<3<;333132==<=440<11=4944<*",
"<$X$$=$=<:=<:=41<*$31<=&:8w91<;<;,84*=,**6344,1=*3=3=<4<$,4993=3",
"<3*;;$$*:$$=:1<443X<<64*13891===<*=4<,&=;33:7<61<4=4818;=39<4983",
"=33,;X+=14=:==::133;<98*,<442<$,33$*<;<3=;<;6744<3408444,<8;<4<<",
",3<<;*.$$=<=:<=:8<=<<<=1<2<2==1;$,%#$*4946<==<6,<=2<8232,1==3===",
"19942=O$**$=3<=;=,3;;*#,,,=;30q882<<4333=:<<$==<$==,=18863<#$;%$",
"*<,2<1%=;$$=:$+;,3<443O;<84%133,4,283;;=<;;4<<*$1<1=*,48333=&%#&",
"+%$O*33;;X+=14*;==,<3<3:<94*,33<,4941<$$,,41414*;343;433,64;XX<X",
"$;$$=:===*X$%=1:=<*=73;<33;1<432$,9499991,6,==t9344343:3%4=,%*:X",
"$;$XX<:$*=$;:;3434*,34431;$<:2:;=48tere992;=:666:<=$=<*$;8%#O@**",
"$;<X-*-<;3:4464><34=*4=;3;<33343,9ww894484;*$64$3<394333,4=%@*3-",
";=<:;$;<3-4;4>$X.-..X$X=34894330q9w0w91*4:<<<99*<=444035343---3:",
"$X<,,<$=*<;3;3=3@-**=;4;84;<484774980e0<<4<=%4:4;<<<443773:=X+::",
"3*=*=X;=3<<1$:,45>:3*<44944=:3443<<;2408<*=**4<<=<33333334:;*---",
"3<*3%34:<<7<9%;;7><@=:334<;3<3333=;;;280<33=4944<%4<3;*:34--:3:;",
"*X:$$<5<3043w0:=,4=$;<34<**4444<<:=3=<=<4<*:4803;==444226,,<-,>&",
"X<*$*:*:<4<=393===4,;<*;**:33:4343<3:4738;=19<4983241<>,4<41;&&%",
":34*$:*X*:4=<483=<48*,3,3:$*:;8433<43q9784,183;34,3411,%<,,&2>%%",
"::3<:33*=;<:$393;;33==$<4*:;*+;3<<74<9we844144;43=4816<&&,%42<=%",
"=*:<**<X**75=<844<4;=;$;<=*<==$4t88q<7<3444<<4=;1*$2,46>,>,2>2-&",
"=*:**$<:**5:$=<04443%<%%33***X%,;344488<<;=224;,&%$8;%&=26,<26,<",
"5X:$XX<>X->:3<$$14443<<43*%*=+$+=:<37843=*3848<4,#;221;%,2,1,>;>",
"=4<3**<>>X-548,O$3w;8043<*#;;=,1<**3447;$=;<42231&;<682<&2;>,4>>",
":X*33*344$,<=*<<<X<;4<4=;==<==3;%*=341;1;;<<42=:2%&&$>645122,&>,",
">-=:=$:3<;3;:<*$*::88<744<;4<14$48<32281242<=<3:6,%<,<2,1&,<,>>1",
"3XX:<XX<1*<=:,:;3<+X<;:33349993:489;$<40942,,2<,66<,2<66><,>,,&#",
":X<::3X**$*$;443;<1$%X;<4444<4<=%:83<=218242<2;=2>&@>4872>,,<&@@",
"<<3<=3=X+;3*388w=3*=$%=%=<4<=;<<$==:$==;;<4883<O&,&#>62162,>>&&&",
"<==3=*<<$<*X*<493<$X$%*$%<,=<,;4<<=$3<<;=,48443=&@#&$$&&,22>,5>&",
"<**=$X:=*:;XX*<<3<<%;=$$=;++;<3<443X:184*<42:42,##&##O&&%&&@,7>#",
"+$=X==<=<:*****$O$34;:OO=34*;==;:3<3:<84*,24,<;,$,&$#@$$&&$@&4&%",
"$X$*$$**<35X::=*$*:=;*=X#%=<;=3%;83,3<3<1<84<=$=,&1;&%&%&&&o@<& ",
":*8=OO*:::XX3-:XXO::$$=$;,=2444%;34433=$,,<,,4$*,112&X,6,&-@@&$ ",
"<=<<:$<::5-**X::O::=1;1=448844993,94,3==1,42,<,<&&;1& O2>&&&&,>@",
"$X::$$X=>:X::**:,3,=14$=34<==3484<94=8<1164,<<30<&2,- .%&%-&>%;X",
"$::=:*$$$<$*=<<:=:3:=O*4<=*%<<<433333,==,84*,<83<266<;&%%%&&%%-X",
"<<<=:*O$*=*:43=<:=313:+X==99943*$38481=*=,=*=<=8<2;21;&,%-%&&&&&",
"=:3;:2$==$**:$$=:2<441%$=94394%#%<q833%=0<O$,<1,26<&&%&OXX$%%;==",
"===+*<4:<XX=<7*:==::3<4$;<=;34*+O$23<,$$=<&&=*1=&,&;;%#%.%X.%-O;",
"=;$*::==*=XX*=<::<*=943**4:=34:<;$=<2,22,93,3#<*=,==,;==&<&#&:2%",
"=2*=*:<%*=$::=<444*=347:<<==<3<=$<<<,=19944<=%$#=;;;;3==61,;<997",
"4=*<<;=<$3<74494448<=844<*;3<44<#;284*<43,42,OO,X$X==4<32%57<123",
"<4;:323==<33<7=3::3;44<8::==;:3<2;<94%:24<<=<%==%$$$<8992,269;$:",
"448*:3:<<$%;;4733<43q94843<2=<8<=<:,;1<432;=31=<====3434<==<62<;",
"<43==%,2=;;*$:3<<84<89t8484<=:;:2::=$,,,==4908821,313<=:<<$==,$,",
"<4==;O;<;=<==$4t88q<9<4444<$+=:3<441O:<83=<43,4<383,;=<::31,=$<2",
"133=91<491<<+*:<4<3338<<=;38%%%%=;:12:,88==<3==32=,;$#;:3,741#<1"
};
