/* XPM */
static char *_540562615133[] = {
/* columns rows colors chars-per-pixel */
"64 64 40 1 ",
"  c #9EB1D2",
". c #A4B5D4",
"X c #A8B7D3",
"o c #A7B8D6",
"O c #ACBBD6",
"+ c #A7BAD9",
"@ c #ADBDDA",
"# c #B1BED6",
"$ c #B1BFD9",
"% c #A9BEE0",
"& c #AFC0DE",
"* c #B4C0D7",
"= c #B4C2DC",
"- c #BAC5DD",
"; c #BDC8DE",
": c #AFC1E2",
"> c #B4C5E2",
", c #B9C7E1",
"< c #B6C8E6",
"1 c #BCCAE3",
"2 c #B2C7EB",
"3 c #B6C9EA",
"4 c #BCCDEB",
"5 c #BFD0EE",
"6 c #BECFF0",
"7 c #BFD1F0",
"8 c #C1CDE5",
"9 c #C1CFE9",
"0 c #C5D1E6",
"q c #C4D2ED",
"w c #C9D6ED",
"e c #CDD8EF",
"r c #C5D5F1",
"t c #C9D7F1",
"y c #CDDAF2",
"u c #D2DDF4",
"i c #D6E1F6",
"p c #D8E2F7",
"a c #D6E1F8",
"s c #DAE3F9",
/* pixels */
"ryuutttt55tq3ey5y<8>,,-@$+$8#OXX##O=--$+==0019q0rrwurryyqiu4qqty",
"i5ryy5tytytetqww191>,$o,$XOX####OX=$$=8>18wwq4wwrqryr7yr7ruuyytu",
"uu4tyutpyyq5q304<,8,,>$O#X#$##X-#O-$---=8q1qw0truyyyyuqr5rtytryy",
"ttrqrtytuypqy<>181,$-$$-$$-. -O.O#$$--184q0qeerqyy4yayrtyruyrytr",
"tytuiytqr0iqee>:<@1--#$.--*#O#--$@8$>$%81q0qyrryyu6tyryqayyyyyyt",
"ay4yyyeqq30ue8w=,$+-$$#####$OO$-OO1-1,1<wuqq4raytyu7yr7yattat7yy",
"ayytyqyyye0<;q18@->X$-##O#$--$$-$$%>8<w44yutwruaty6yyy4ryyyayr7y",
"tyrttrywe3q:>01;@$$$X##;###O#;-@>,@@8,ww4qpqutyturytytprryyyiyty",
"uiqqt434ww&01>@---O$-. X##+$--1@1818>8wuqrututyaytr5ipusaytttyyr",
"tyi4wwwq10>18=@ O$=#;X###$-$=--<88<14w9tr3tuuyyyyy77yuyraytryryy",
"rtye5wyw>11;@=;O-###### X--$$8=@,0w14wyrqrrtyyrr57yu5qu7tyuyyay7",
"tqwe4we0<>=1=@O=-$$.##-#$$-=$>81>9w99yuaryyrtuy5y75tyryurraaryy5",
"30tqq0111>=;1=;=X-O$$$$$@$,88-88>3wwqryuuyryyy63ii55qyyyurrytqty",
"q5qe1>0q1&====-;#$#X.X---$@>8q81y99yr3tuuaryty7trrytty64yyyyyrt3",
"w4400>11;;&O==**###$#$.-1O-$1911uw9wyuttuuryy6at2ytttytrrtyrtiwq",
"0eq>011=-=*=-*.O#$X$$$O$-1,w9834wuryyryttyyry6ruyrt4rtyurttqtqqy",
"e38488;&---$XO####$--==@1->qw8qqeiqryyru47ryyyyyu6y7tyquiq7qqqte",
"q081;1@=--OO#$-XX#+O--=,811<89wq4qrrryryrtyuyyyiurr5yyr5tyqeqt0q",
"111====@$$XO#O$-X==@=$88>11<w9yy5tarrrrttiryuy5ytr7yyyqr5yytqey1",
"0>88&;=-$#O--$OO-+$=@+,181qwyqwtqyyyit7rtiuyryyttq57tyyi55iyqq51",
"8=1;=@==-X=OO$X=;$=$,118819yyt3yyt7yyyiyryyyqwui5titreryw3yww111",
"8+o@*@o.#O*# -#$-=&>>111qer3rytyrr7yt4ttyquyuytyyrrqryuqqwqqw81>",
"1-o$---#X$#=##@$1-1111903er4rru7tr4ryrryyrytiy5qyttyrry59ut31>11",
"O-$=#*-@.XXO$@$=$1818q049wqtrtyryytytyrrriytytr5yrruq4yrqq011@01",
"+$#-@$**$.X$O==->1q110wqwrwyyttytirtrturyyuyrruqqtrryuq0ew10-&-=",
"=@=-#.#=X-+$=@@>=188qqqwywutat6yryyy77ytqayyuyyurtrrqt4<90w1=1=>",
"$.#O=#X-O@-$-=1@,11qw4tywtstyuytiyyyr4qy7tqityuiiry0441q111-1;==",
"=-XoX#XO=O$==888qq9qqtqtytruyyuyttyruiyrtqytrqyrtqqut>3941-88;@=",
"X=#-=-$$---+=,1w0qwwtq4ruytttuyyryytyyayt3tquqyyqyyqw<@1>1@=;;=*",
".O##X#=.$=80=>10wqyyq4rrqyytyytayr4yrair4rtrtutq4t4q8w0>@1=@O#-@",
"##X#XO-O=,>,=98qw0ywyyrrttytuttaa47rytqryquqytqqyw<11<88>1=#@@*-",
"--##@#o-=@@>48wq9qyuryyrqrututtyuuruu4rtrtttyrwqqu111@;8-=-#O@X*",
"X$#-@$@-o=>4<qwqr4qytyytryuuyiarysyrtquy3ryurqq54e008,,1-+#;O#XO",
"$#-$=$=>18w040yq5yryy7uiuttyrty7rtq4y5yuttiuqeq5e111,@+=$=##*#X#",
"#+@$=@<811wwq4qeeyy5uarttarytyyyryrur5irtyeueqq01>1=1===O-. ##-$",
"$$$1-%@1>:0eew5eyqir7saayraryiyttrtyuquuyqqq02011111@=+OO=# ##$-",
"=$--1;810e0qutqqqriiryytuusrtia7rtqtty3qiq55e0:>>11=@=@OX#*#$-O-",
"$8>=-q01qyqrqqyrpr2tiya7yuyyyyyytyyt7uq5qe51>q01>-.=$+$XX=#O#--$",
"=$1=1><0ettwyqsyyat57tayy77yttuyyqquuqyr11q0311;@-=$OOX#**#O#-O$",
"=,=8q14r033wt7ytyyyy7y7yyr6ryyyqitiqu4ueq54q0-1-@&=-=#O+OX=#-$$-",
"8,>9ww34uy32yuyu7yyuyrrryt54utrrtqtr0qqwee1:>1;=-oO=*O-O#.O@-@=-",
"8,>9wwe37qyrryyyyr7yyayr4yutryiqrty535qq400>-1-&===#*O#-.##@#@+=",
">89w4wuertyayrtyyuruyt7yttuurrrupt2qe0e5-01;;===-O=*=*$-$$@==-,>",
"1qwwwuu9yyyaatryiyuuytt5yuyrur4yqeqe4qq1:41;1===$X##$-$O---==,->",
"r99wruuutrryruauytuittttyurwtwtrqqww30:0111=1==--#O=-**$$O18,=10",
"999yy9uuyr7urriuyrttrytyrqtiqyyqqrq014>1=&=-==OX#O.O--;=@,=-1114",
"wwqtryttitaruyii3iyyttyytrryrrtqqqe401>&1=&OOOOX#*o.O#-=-1>,1914",
"9uurtuytyryrartiytuutyttytrtt3qre4011,0;===*@OOOX=#O--@=$8=>80w3",
"9ttuyuyytr7yyy7yyr7ryurquuurqqw0w48,$>81>X$@O#XO#o#$@$8->8089ww9",
"rr6yurryuyrtayyyrutytrtyuyuu4qwqw91q,>=-$$OXOO###.O=O$-+-88ww9wu",
"up3rtyttryyr7quyyrqqturtyurwy4q911>=1$XO$-X#XOOO*-+->>$@8<,<9qqt",
"rututryu6yyaryrryuyutuyttwr9q99811,>$-$O$##*O@#@O=$@$$<1,<134y9y",
"ryuyrr6yyausarr5tt7qryrtyr9wqww11>1;O-=@##XO-XX@=$-,,1,141r1q6ty",
"uut9ytrrtytyryeyrttrryrwut4w18880=+;-$;OO$#$OO#--=@,=><>0wqup96t",
"tyyuu9tty6twyr3trryuiuue4qu4><81=-==O@#X$X-=.-1$>-=>84>9wwwtyury",
"ur6uurrtrrtyyy53y45ty4yyq0w=:=,======O$#OX-#$--$=-,>111qqrtwtupu",
"uyrtywrq5utrywu4yyraq450q311>&=@===OO;*;#O$$$@-@$=,=>wu4wtrauyyu",
"tyatttrrrytqtitu37y5yie3q<0>=&;&@-=##@@X$$-$=$-1<,ww<3qwytrruaty",
"yruutyyy5uyryutasir0qqe9=11=1+=OOOXXOOXO----=-,,$<%qw4yytprryuy7",
"rruuyyyytqiiytypyiq5w<8118=@==&O@X#=X@X..$$>->=>9999wytrrppuyyt6",
"ttyyuutyyrqttar65tw5410q1@;$;8*XXX*=X*--oO-$>=1w<9y4rqtyryrt7ryr",
"rrtytrtrptruyuy4030t,:<1&>=-#@;@.O@-.*=-O#$$-->wqwqwyyytaryy66tu",
"yt9ttyu7qqttyt4ye>411q,=;=====-*O#**.==*18-;>9wwwy3uuayyrryuy36y",
"yyuytyytyu5qyeyqee51011@====-##**@X@=*@=-1184<8w9uq4yyayytrsay76"
};
