/* XPM */
static char *_540562732821[] = {
/* columns rows colors chars-per-pixel */
"64 64 149 2 ",
"   c #5C5754",
".  c #575957",
"X  c #5D5A56",
"o  c #5E5D5D",
"O  c #615C5A",
"+  c #5C615C",
"@  c #64645E",
"#  c #5B5D63",
"$  c #635B63",
"%  c #5B6160",
"&  c #646364",
"*  c #666C64",
"=  c #696966",
"-  c #64646A",
";  c #6A6569",
":  c #66696A",
">  c #6C6D6B",
",  c #70676B",
"<  c #726C6D",
"1  c #6F7067",
"2  c #67706B",
"3  c #6D716D",
"4  c #72736E",
"5  c #6C6D73",
"6  c #696E7A",
"7  c #726D71",
"8  c #6E7272",
"9  c #737373",
"0  c #797576",
"q  c #737A74",
"w  c #797975",
"e  c #757579",
"r  c #79757B",
"t  c #767A7B",
"y  c #7B7C7C",
"u  c #827C7D",
"i  c #7D8177",
"p  c #7D807D",
"a  c #82827E",
"s  c #8A867E",
"d  c #7A7681",
"f  c #7C7F80",
"g  c #837E83",
"h  c #7E8282",
"j  c #7F8F88",
"k  c #848484",
"l  c #898484",
"z  c #848985",
"x  c #8B8C87",
"c  c #858589",
"v  c #8B868B",
"b  c #858A8A",
"n  c #8B8B8B",
"m  c #928B84",
"M  c #918C8C",
"N  c #8D9387",
"B  c #8D918E",
"V  c #92928E",
"C  c #99948F",
"Z  c #93998E",
"A  c #8D8D91",
"S  c #938D93",
"D  c #8E9191",
"F  c #949394",
"G  c #999595",
"H  c #939995",
"J  c #9B9B96",
"K  c #95959A",
"L  c #9B969B",
"P  c #969B9B",
"I  c #9C9B9B",
"U  c #A19997",
"Y  c #A29D9D",
"T  c #9EA29D",
"R  c #A2A29E",
"E  c #A8A19F",
"W  c #A8AA9F",
"Q  c #9D9DA2",
"!  c #A29DA3",
"~  c #A99FA5",
"^  c #9DA3A3",
"/  c #9FA3A8",
"(  c #A4A4A4",
")  c #AAA5A4",
"_  c #A5A9A4",
"`  c #ABAAA6",
"'  c #A4A4A9",
"]  c #AAA6AA",
"[  c #A6ABAB",
"{  c #ABABAB",
"}  c #B1ABA7",
"|  c #B2A6AB",
" . c #B2ADAD",
".. c #ABB0A7",
"X. c #A7B1A8",
"o. c #ADB2AD",
"O. c #B2B2AE",
"+. c #B9B7AE",
"@. c #B9BAAF",
"#. c #ADADB2",
"$. c #B2AEB2",
"%. c #B1AEB8",
"&. c #AEB2B3",
"*. c #AFB9B4",
"=. c #B4B4B4",
"-. c #BAB5B5",
";. c #B5BAB5",
":. c #BABBB6",
">. c #B5B5BA",
",. c #BAB6BA",
"<. c #B6BABB",
"1. c #BBBBBB",
"2. c #C0B5B7",
"3. c #C0BBB7",
"4. c #C1B6BC",
"5. c #C1BBBB",
"6. c #BAC1B6",
"7. c #B6C1BC",
"8. c #BCC1BC",
"9. c #C1C1BC",
"0. c #B6B6C1",
"q. c #BCB6C1",
"w. c #B6BCC1",
"e. c #BCBBC1",
"r. c #C0B7C0",
"t. c #C1BBC0",
"y. c #BDC2C2",
"u. c #C3C2C3",
"i. c #C5C8C6",
"p. c #CBCBCC",
"a. c #CDD3D2",
"s. c #D5D4D5",
"d. c #D4DAD6",
"f. c #D7D6DB",
"g. c #D5DADA",
"h. c #DBDBDB",
"j. c #E1DFDE",
"k. c #DFE0DC",
"l. c #DCDFE5",
"z. c #E0DFE1",
"x. c #DFE3E0",
"c. c #E3E4E1",
"v. c #E9E6E4",
"b. c #E6EAEA",
"n. c #EAEDEA",
"m. c #F2EEF3",
"M. c #F4F4F3",
"N. c #F7F7FC",
"B. c #F9FAFB",
/* pixels */
"> > : 6 8 7 9 4 7 < e w w e u t y p k l h k k c l k l v v n n D n v b n b M c s v k k u k c t d p y e r q 0 4 < 9 > 9 7 < 1 2 > ",
", ] :.>.1.9.u.p.h.h.h.h.x.c.l.v.c.m.m.M.M.M.M.B.B.B.N.B.n.b.b.n.h.j.x.h.h.z.g.k.g.d.s.f.s.a.i.;.e.>.:.>.$.=.=.#.{ | { { U k k 5 ",
"> { c c z l k x n n b B A D K K G I P G / Y ! Q ! ~ _ _ ' ( ' ) _ ) ( ! R ( ) ( I ! T ^ I I P K F K D M A x n v m c c z c l g > ",
"q } v c h.f.p.v n F S V H F G I P I ! T R ^ ! / ( { ` ] { [ [ { ] X.{ ' _ { { ( ' ' ) ( Y ( I I I G G P D F S v v h.f.p.l l k < ",
"7 #.c h.f.{ u.8.S F S V K Y I I R ( R ' ' ) _ { ] { ] { #.$.[ o.o.O. .o.#._ { { _ { ' ( ( ^ U ( I I U Z J V F D h.f.h.u.e.s z 7 ",
"4 $.k s.( :.h.=.k n H H P I Y ( ^ R ) ] _ { { =.O.}  .#.{ &.o.&.%.&.}  .=.$.O.O.+.{ { { ] ) ' Y P ^ I P F P B D s.#.:.h.-.q h 9 ",
"8 { c i.u.h.>.] p n G I I I ! ] { ( ] { { =.=.{ #.{ #.&.:.-.&.>.=.@.:.-.,.{ $.=.O.{ o.) { ] _ W ( T Y P L G H H i.u.( =._ t f 5 ",
"8 { N x :.$._ k z F J J R ( ) ) ` { { O.{ {  .$.:.;.-.>.:.<.;.-.>.-.;.&.=.;.&.=.=.&.&.=. .{ o...] ' ! ^ J P G H F :.=._ p t t 9 ",
"8 *.v v x k l c b I ^ Q _ ( _ $.{ #.&.O.=.>.<.-.=.>.-.>.>.<.-.-.=.>.=.>.-.;.=.=.-.=.=.O. .=.$.{ _ ] _ [ E ( P U F S g k y p b 7 ",
"8 &.n M S B n H P Y ( ) ] } { { &.o.O.-.;.=.-.>.;.;.=.;.;.=.=.-.,.=.;.<.=.;.:.;.<.-.-.-.%.O.&.=. .$.| _ ' R T I G F n v n v x 8 ",
"t =.N A D J G I ( R _ ] #.{  .=.=. .;.:.:.-.:.>.,.>.>.=.1.;.-.<.,.,.=.=.1.-.-.-.-.>.;.&.<.-. .=.=.#.{ { ( ) ^ T L K F S B n b q ",
"0 ] F D F H P K ( ( ) o.#.$.%.$.<.,.<.;.<.>.>.-.<.=.;.1.,.>.,.,.-.>.<.<.,.>.1.:.,.:.w.>.:.,.,.>.$.=.O.{ { ( _ Y J U F G N M b e ",
"w o.H F G I I I ] ) { { &.=.=.-.>.-.-.<.>.:.:.,.:.:.e.:.,.5.,.<.<.,.,.:.>.>.<.1.1.,.1.:.,.<.>.:.<.=.$.$.} #.] ( I I I P G D D e ",
"q { V F H I ( Y ) { { =.%.$.;.:.<.<.>.;.<.<.1.,.1.:.1.>.%.,.,.:.:.>.1.,.:.:.1.:.,.1.7.,.<.:.<.;.<.>.=.O.=.{ ..] ^ Y I I F V F t ",
"y | K H K Q R ] _ {  .O.=.,.:.=.;.<.<.>.e.1.5.1.1.1.e.<.1.1.e.<.:.:.-.:.1.,.<.:.1.:.1.1.,.1.:.>.<.,.<.=. .O.{ ] ( ! ( K F S B y ",
"u =.K P P ' ) _ #.] =. .<.<.1.,.<.e.,.,.<.<.-.<.<.1.1.:.1.w.1.1.,.:.<.-.:.>.1.:.:.1.>.1.1.1.1.<.<.<.,.>.=.=.{ [ ] ) ^ I P F H y ",
"i =.F P I ! ) [ { =.&.=.=.-.1.-.:.:.e.1.1.1.1.:.:.1.:.1.1.,.1.1.1.:.1.,.,.<.1.1.,.1.1.1.:.1.>.<.:.;.;.<.;.=.$.{ { ' Q T I C F p ",
"h =.I P R ~ ) { o.=.O.-.-.<.,.q.:.4.1.w.1.w.<.1.7.:.1.1.4.1.1.,.-.1.1.3.8.1.8.1.5.1.6.1.r.<.e.,.,.<.,.;.>.=.&.&.{ ( W R Y J K t ",
"z $.P / ( ] X.{ O.=.=.-.:.1.1.:.4.1.-.:.,.e.1.5.1.y.8.1.,.8.1.5.:.q.1.,.9.1.,.1.1.1.1.1.,.,.1.1.1.<.<.1.:.-.>. .| { ( ^ R I K a ",
"g >.I ! ( { { } { ;.-.,.<.8.<.1.1.5.:.e.1.r.1.:.1.1.e.e.5.8.1.1.8.e.e.1.1.5.e.1.1.8.1.e.1.1.9.:.1.:.>.1.:.>.,.=.=.{ { ' ^ L I g ",
"u :.I ! ( { | =.o.>.;.-.,.1.1.,.1.1.:.8.1.e.y.:.1.1.y.5.3.:.y.5.5.1.e.1.t.1.1.5.5.1.e.:.5.e.7.1.<.<.1.,.-.=.:.#.O.{ ] ' I ! I h ",
"j ,.Q _ ( _ O.=.;.>.=.7.1.,.:.:.7.1.e.e.8.9.e.8.8.4.1.:.7.1.5.,.:.t.8.q.e.1.1.e.1.8.1.1.1.8.1.<.<.1.1.,.-.-.>.=.O.=.[ ' ) I P c ",
"c ;.! ] { ] =.} ;.=.-.-.1.<.1.,.:.0.e.<.5.:.8.8.,.:.8.5.5.e.1.y.8.:.5.1.e.e.1.1.8.t.1.1.1.1.:.<.9.<.:.w.>.>.,.;.&.{ [ _ ' P P z ",
"c 1.I ' ] &.O.O.;.>.>.:.1.<.5.,.1.1.1.e.e.5.1.9.1.e.1.5.1.,.5.5.e.y.5.:.1.5.0.1.1.8.5.e.8.1.:.1.:.:.1.<.,.-.,.=.O.=.=._ ' Q Q z ",
"c :.] / { o.&.;.<.>.*.>.<.1.1.,.1.:.1.t.1.1.8.1.<.1.8.y.e.<.,.1.1.e.:.1.8.5.1.5.9.:.1.:.1.8.e.1.1.1.;.<.>.>.-.;.:.{ #.] ( ( ^ k ",
"l 8.' _ { #. .;.=.:.<.1.:.1.,.5.3.1.1.e.1.1.1.1.e.e.8.8.1.e.:.e.8.e.,.8.,.:.e.9.5.1.e.e.1.1.1.:.y.:.,.<.:.-.<.>.-. . .{ ] ) R l ",
"l 1.' { #.{ O.-.-.=.+.>.;.,.,.:.1.5.e.t.<.1.5.:.8.1.:.1.1.<.1.5.8.:.8.<.:.y.:.1.5.5.:.:.1.y.1.,.1.1.>.:.1.-.>.>.=.{ #.{ ] ( ^ z ",
"A 8.( [ o.$.{ -.,.;.-.=.;.,.w.,.1.7.1.y.e.y.1.1.1.1.e.u.1.<.1.1.1.e.5.1.1.1.9.:.:.8.8.7.<.1.1.,.,.<.<.:.;.-.>.=.=.=.&.{ { ( Y x ",
"v 5.( _ O.{ =.>.-.,.:.1.,.,.:.1.0.1.1.e.1.5.1.r.,.1.:.y.1.1.5.5.1.e.e.0.:.1.e.e.e.5.1.1.e.e.e.:.<.<.>.;.;.,.-.>.>.=.&.{ { ) ^ b ",
"x u.! ] #.#.+.-.-.<.=.,.,.:.1.,.1.7.y.:.r.1.e.1.1.1.e.5.:.8.1.1.1.1.8.1.1.1.:.:.5.1.7.9.8.1.1.:.6.<.5.:.:.-.:.<.-.=. .O.[ _ ( v ",
"M y.' { $.=.%.=.=.:.=.>.-.<.1.5.4.1.y.5.:.5.t.,.1.:.e.8.1.1.e.<.t.1.:.8.e.1.9.8.1.1.5.:.1.:.1.1.1.<.1.:.,.:.,.=.-.>.#.{ ` ` ' M ",
"n u._ _ #.o.=.-.>.<.>.>.:.1.1.1.:.1.t.8.:.t.1.1.5.,.5.e.1.1.y.1.1.e.5.1.<.5.1.e.9.e.e.:.1.5.5.:.7.-.,.:.,.:.>.*.-.-.O.O.{ ( ( v ",
"A u.( { { =.=.;.;.:.:.>.1.:.:.1.e.<.1.9.1.:.1.1.1.1.5.1.5.0.1.:.1.7.:.:.8.8.8.1.1.u.1.0.5.:.,.1.1.w.1.1.=.<.=.-.:.:.O. .{ ( T n ",
"v t.( { o.#.$.-.;.=.<.,.1.-.:.1.1.1.y.:.:.t.e.t.1.e.1.<.1.q.e.1.8.1.1.7.5.:.y.1.1.8.:.1.1.1.,.1.1.1.:.:.-.*.;.%.-.$.O.#.{ ( ' x ",
"N t.( _ &.=.%.=.=.;.:.>.,.<.1.<.5.1.1.e.t.e.:.5.1.e.1.1.e.:.e.e.5.:.8.1.5.8.1.1.:.1.5.3.1.1.8.7.1.<.:.0.:.-.:.;.;.=.O. .{ ] ` n ",
"N 8.( [ o.#.>.-.-.-.+.1.,.>.1.:.1.8.t.:.1.8.1.w.,.1.1.9.1.t.1.8.1.7.t.e.8.1.1.1.8.7.1.1.8.:.1.1.7.<.:.<.<.-.;.=.>.%.{  .{ _ P x ",
"b 7.) { O.o.+.>.;.>.;.,.:.:.<.:.e.1.e.e.1.8.1.1.e.1.:.1.:.8.3.1.1.:.1.8.8.1.,.e.:.5.e.:.1.1.1.1.9.<.1.1.,.>.:.-.>.#.=.{ { ) Q c ",
"c y.^ ] { { { =.=.-.;.<.<.1.1.,.,.,.:.1.:.y.1.8.8.:.:.1.7.9.1.<.8.7.1.1.1.:.,.e.1.1.t.e.u.4.1.-.<.:.7.:.,.:.;.,.=.=.+.{ { ( Y c ",
"v 1.( _ { &.$.-.;.>.;.:.,.-.:.<.e.,.1.7.<.1.y.1.:.5.e.1.6.1.y.,.,.1.5.5.1.e.8.:.1.u.t.:.1.7.:.,.1.>.1.,.>.-.>.=.=.&.O._ _ ` ! k ",
"c 5.( ' ] &. .=.-.-.>.:.:.:.1.1.9.5.r.1.y.:.<.9.1.1.5.9.8.8.:.1.5.8.8.:.e.e.8.1.:.9.e.:.1.1.1.1.:.:.<.:.1.1.-.-.=.=.$.o.! Y R c ",
"c 5.^ ( { $.O.{ -.>.<.>.:.>.1.<.:.:.1.1.8.q.t.e.1.5.5.1.8.1.1.5.8.5.1.5.e.7.9.:.1.1.1.1.1.<.,.t.,.,.:.1.:.>.>.=.&.o.=.[ W Y Y z ",
"b :.Y ( ` ` #.=.=.1.-.;.1.>.1.-.1.1.t.1.5.1.:.<.y.e.e.e.1.y.8.5.:.1.1.1.e.t.8.9.5.8.1.1.1.1.1.1.,.:.0.-.0.,.,.-.$.=.{ ] ( ! P c ",
"c -.^ ( ' { #.O.-.,.>.:.1.<.1.<.1.;.1.1.,.y.w.1.:.1.1.1.1.1.,.5.5.1.5.1.e.1.e.5.-.1.t.,.1.7.5.1.:.1.1.<.1.;.>.-. . .[ ( R ! L c ",
"g ,.! T ~ _ #.#.O.;.=.>.:.>.1.:.e.1.e.1.9.e.5.8.5.1.1.8.1.1.1.5.5.e.t.e.1.8.e.:.5.4.5.:.1.y.w.e.,.1.<.<.-.-.;.#.O.{ { ' ( R U a ",
"p >.I ! ( _ { $.O.=.=.<.:.1.1.:.:.<.e.0.e.e.1.5.7.8.8.4.e.:.e.1.1.1.1.5.1.e.1.1.1.5.5.5.9.1.<.1.,.1.1.,.<.<.-.&.o.` { ( Y P K a ",
"h -.L I ( _ { { o.&.-.<.;.1.,.1.,.1.w.1.5.1.e.1.:.1.1.e.:.:.1.1.e.5.u.:.1.1.1.<.1.<.4.0.,.1.1.,.1.:.,.;.=.-.=.#.o.] ] ) Y P G k ",
"u O.P I ^ ( ' { &.=.&.<.:.:.>.1.1.>.7.e.6.8.1.<.<.<.1.1.5.e.:.:.1.e.1.:.t.,.5.q.1.5.1.1.:.1.e.e.:.>.:.-.:.-.O. .[ ) ] ( I U H p ",
"y =.P J R ^ ) #.{ #.=.:.1.<.<.,.1.1.1.1.1.1.1.:.;.e.1.,.8.1.1.1.:.q.<.1.5.,.1.1.:.:.1.:.1.4.>.1.,.1.:.;.>.=.&.{ { _ ! R I G F u ",
"u O.P J P ( ( _ { ` =.{ <.-.-.1.:.,.1.,.,.1.1.5.1.-.:.:.1.1.,.:.:.5.:.1.1.<.:.,.1.:.1.1.<.>.1.,.,.:.:.1.%. .| [ _ ` Q P P F S y ",
"i O.H G I ( I ` { { &.=.=.:.<.<.;.<.:.<.:.,.-.7.1.:.2.,.:.:.<.:.1.t.6.>.:.1.1.<.1.,.5.,.<.<.-.1.<.1.<.%.=.=.o.] ( ^ I I K F D a ",
"w { M H J P R ! ( ] { &.=.*.=.-.>.,.e.:.1.,.1.2.1.>.8.1.<.:.<.=.;.,.:.1.1.;.,.>.,.:.,.5.<.1.:.<.>.:.=.$.#.{ #._ T R I J V S S t ",
"w O.F F K J I ! ( ` o.{ O.&. .1.:.:.,.-.,.6.:.<.>.:.>.:.:.1.<.>.1.:.0.:.1.-.1.1.,.-.w.1.<.>.<.;.:.&.=.&.{ { ) ' ^ P U C H A C r ",
"e _ A V D H J I ( ) { [  .o.o.$.=.-.,.:.:.>.-.,.-.,.:.=.<.1.<.-.<.>.-.<.,.-.-.:.>.=.:.:.:.;.,.-.O.=.#. .{ ' _ ( I P K F n B n e ",
"t _ x F F H H L T ) _ ) { { *.=.=.#.=.,.:.-.;.-.:.;.-.;.-.;.:.>.>.-.=.-.>.2.=.>.>.:.,.-.,.,.=.O.-.O.[ { _ ] ^ ( I F F D S b n r ",
"9 ] v B V S H P P ^ ^ ! ] _ { [  .o.*.,.>.>.;.;.,.>.;.,.:.;.>.=.=.-.>.;.>.-.%.=.=.=.,.;.;.O.=.o.] ..{ ] _ R ^ I I F A S A n n 8 ",
"4 { x B n M H K I Q R Y ] ( ) #.#.=.#.$.$.>.>.-.>.>.-.<.=.;.=.-.-.>.-.:.;.>.>.;.<.:.1.o.&.o.=.{ { { ' ( / Q Y P F H S S n v x 4 ",
"9 / n v h.f.p.H K K L T Q Q ] ' ] o.[ &.} =.=.#.-.-.,.:.-.-.=.>.&.<.-.=.;.>.=.-.$.O.o.#. .{ { { _ ( ^ ^ J I P C H h.g.p.b n c 7 ",
"4 ! z h.f.h.u.y.F F J H P R Q W ) { [ { [ &.$.{ #.o.o.=.<.=.-.-.>.;.-.=.=.$.O.#.$.=.O.{ [ { ) ] ` ^ T P Y H G S h.d.{ u.t.k z 4 ",
"9 ( k s.o.:.h.-.u b G K I P T / Q ( ) } { { { =.&.&.&.{ o.#.=.$.{ o.{ =.o.O.$.=.#.{ { { { ( ] I R Q T P H H V B s.( -.h.-.e h 7 ",
"7 J k i.5.( =.] y v M S J H ! H R ( ( _ ( ' ..[ ' { [ [ &.#.} O.&.&.o.=.{ { { ` { { Q ( ) ` T Y Q P P F V V V B i.u.h.-._ 9 y 8 ",
"3 D s l :.=.] y t c F A G K F P I Q R Q Y ( ( ( ^ { _ ] ` ]  .{ [ { ] ] { ] _ _ ( ( ~ Q Y I G I T K D G K M F n n :.=._ 9 9 a 9 ",
"> A z c k 0 9 y y l B F F S K K Z I U P ( ( I ! ( ' ^ _ W ( ' ( _ ( ( W ( ( ( ) R ! ! ! Y J P J C K D D M z b v v k 0 9 r e a > ",
"< f 4 = ; & O $ ; > < > q 8 5 e 0 w w i y r y y f k a k k k l c z c z j u k l p u y y p y r t r r 8 9 9 > < > 8 = & - + # t h > ",
"< @ . o O o X o # % + @ & & ; - = - > > 7 5 e 9 7 9 9 0 e e t w r e w r w 4 8 e 4 9 e > > 8 : : * = @ - & - O + + o O o o   5 > "
};
