/* XPM */
static char *_540562784346[] = {
/* columns rows colors chars-per-pixel */
"64 64 95 2 ",
"   c #3C2F1C",
".  c #77561C",
"X  c #79501E",
"o  c #7A591D",
"O  c #755423",
"+  c #7B5120",
"@  c #7C5B22",
"#  c #7D5C2B",
"$  c #81601E",
"%  c #825B22",
"&  c #885F25",
"*  c #825C29",
"=  c #885F2D",
"-  c #826123",
";  c #886725",
":  c #836229",
">  c #89662C",
",  c #8B6A2B",
"<  c #90672D",
"1  c #906F2D",
"2  c #91702E",
"3  c #836230",
"4  c #8A6331",
"5  c #8C6B31",
"6  c #8B6A39",
"7  c #906735",
"8  c #906F35",
"9  c #986F35",
"0  c #926D3C",
"q  c #986F3E",
"w  c #927135",
"e  c #987535",
"r  c #997836",
"t  c #94733A",
"y  c #98773D",
"u  c #9A793D",
"i  c #A0773D",
"p  c #A17A3E",
"a  c #947342",
"s  c #9A7644",
"d  c #9C7B42",
"f  c #9D7C4A",
"g  c #A17746",
"h  c #A07E45",
"j  c #A97F46",
"k  c #A27E4D",
"l  c #A97F4E",
"z  c #A1803E",
"x  c #A18046",
"c  c #A98246",
"v  c #A98846",
"b  c #A4834B",
"n  c #A9844D",
"m  c #A9884E",
"M  c #B0874D",
"N  c #B18A4E",
"B  c #B2914F",
"V  c #A38250",
"C  c #AA8351",
"Z  c #AB8A52",
"A  c #AB8A59",
"S  c #B18C55",
"D  c #B88F55",
"F  c #B28C5B",
"G  c #B88F5E",
"H  c #B29156",
"J  c #B99156",
"K  c #BA9957",
"L  c #B3925A",
"P  c #B9965D",
"I  c #BA985F",
"U  c #B39261",
"Y  c #BA9564",
"T  c #BC9B61",
"R  c #BB9A69",
"E  c #C2985F",
"W  c #C2A15F",
"Q  c #C19766",
"!  c #C39A63",
"~  c #C49B69",
"^  c #C1A066",
"/  c #C9A066",
"(  c #C9A866",
")  c #C4A36A",
"_  c #C9A06E",
"`  c #C9A86E",
"'  c #D1A86E",
"]  c #D1B06E",
"[  c #C4A371",
"{  c #CCA371",
"}  c #CCAB71",
"|  c #CCAB7A",
" . c #D3AA73",
".. c #D1B076",
"X. c #D9B076",
/* pixels */
"                                                                                                                                ",
"5 5 5 , 5 , 5 5 5 5 5 0 t t 8 0 t t 6 5 t 5 5 5 3 * * * 3 * : : & * : 6 3 6 , 5 : % : > < : : , : : 5 : - > > > > > 5 , 5 5 , 5 ",
"y u y 6 y p h h d x x b f d s s f f s d y s l g h s d h t h d x s s g g y s y y s s g d g m b k l d d d n v d n N n f n b x b b ",
"w w 6 t 8 s 9 y 2 w > , 8 a 0 s q y q s s h y 0 y y q g y g x d m x c h x x x h t y g x s s t s q u i g g 5 y s 8 y 8 w w 6 w t ",
"m H N m L m l m S N M l S m y e y 6 q 8 e y e 9 8 q u y e y 9 9 9 9 w w 8 8 y 6 q 8 8 8 w s 8 8 6 7 > > , 8 < 8 8 y t 0 s y x x ",
"w 6 8 9 u w e w > w > e e y y b l S m S A A m m A L m m l S L A C L L L L b x b m Z m m m s b h n N N B C L b m h m C l y t w w ",
"H L A A L Y ! E U T U T ~ Y U U L L B B L H L L L m x m C F Z Z x Z v v Z m Z Z A v m Z Z Z U S N F m Z F F m m J J Y L U H H U ",
"I Q P G Y Y H G P R ~ P Y P P R I P Q R I P P P ! ^ Q ` ` ^ Y ^ I Q ` ` ^ / / ^ ` ` ` ` ` ^ R ~ Y ^ Q _ Q _ P I L S m S m H H L ",
"I Y P L P P ! ~ R Y L P P I U Y L Y U Q G Y P P L H H B Z m H B H H b m m m m j n n n m n v m L M m m H S m H P S Q P F ^ P P R ",
"m m A Z C b c u z b b g x b m V d x b x x b C c c m L A K L I I L I I P T T Y S F T T I P T L J E Y m m m A U Z L Z m A L U F m ",
"m m C m x b L L S C S C V m x m L n n S N m S F C Z Z s u f u y b g b m m d A b m C m g s g b g h n n L n A n C b m f b u c b m ",
"i u h i i i h y u i g h t x m y h h y h h s h h s h d h c m v m c d x s y y y s 0 t u u h h t s h y 8 y 8 i h u y y u d x A x i ",
"b b y x y y g e e y y 9 a w < 7 6 7 t 8 > & > 6 > 3 6 # 6 , > - 6 # 6 5 8 6 s w y s u t x a h s x b h m h g s y i g u w e 8 8 y ",
"w w 2 w t 5 t t t a t a a 7 t 6 s 6 s s e t 0 5 5 5 5 5 3 3 3 t 5 3 5 3 6 5 5 : : - : # 3 3 6 5 : : : 5 > 5 a 5 6 5 5 0 s t e w ",
"u d z v i q q g s g 0 q d d a a d a a s d a t 8 , t w w 8 t t w r w w w 8 7 q 7 5 5 > 5 5 4 6 5 , w , 6 5 - - > 5 5 6 , , y u u ",
"@ @ o o % % % % . % @ @ o * % : O o o @ O X - @ o @ O - - * @ * * * , 3 - * * : @ . # O 5 * , = , > & # 5 > < * , * @ * # * - @ ",
"                                                                                                                                ",
": ; 4 - % % % o % 3 5 5 5 , 5 > & 4 5 6 6 > 5 4 5 5 5 t 7 s 0 , t 6 t t 6 e e u 7 d d d j p d u u e g e u u z w , , 5 5 5 : - : ",
"b h h h v k c n b b b d d d s l j n d d b f Z S b x b x l d l j l s d s y y g g u e y u w i g e u i i g f s y s x d m k n b M n ",
"> 7 9 y y q y g q s k y s s r r 6 8 r u 6 w 4 : # w w w 1 1 6 w w < 8 8 h h u y u m v m N N m x g x b u 6 y a 6 w > ; - 7 , - % ",
"w 8 8 w 6 u 8 t y y y u k h l m S P m b m S L P A S n n n l x d x t u u 8 9 9 9 9 5 r 8 y 5 e u y y u x t y w s t x m x b s s y ",
"C Z S B m L H M l A m x C h c j h u c v S A n A b A m m m L L Z L L D P P T S L L L n S A L S n m L m m n S m m L m m m m V x x ",
"w t u g b z d n b Z m Z A A L L L L A n Z Z A V V Z A m L L L L L C A A C A b A m Z L Z H L A A L A m Z L Z L L m x x d s y y t ",
"T L L L L P P P H J I J G A H S Z U U m b C l n Z m n v u x y h y y n v d m x x v b m h v v v h n B B A n N M n x m v m L H Y T ",
"L T H Z B B J B K L x N Z m L L Z N I Q P F I U Y P ~ Y ^ ^ (  .' ' ..] ....` ] ..X.X...] ] ` ` ....} ~ Q / / ~ ^ R P P Y I K L ",
"I I I I H G P H H P L P D L m S T T L L L F U L U Y N m L Z m u V s s x d b m n s V h u m n V m V x Z F S P L L L P F L L U Y T ",
"e s j d z x x b x u u x x x n n C C x n b C j m Z b m n H H I ^ ^ T T I L S L ^ T Y L ~ L A n F H L x f u x j h h b s b y y u V ",
"C b m n L L j C m L Z n d b b b s l g k b s d q s y y b y y y 8 9 y y y t y y u 8 y y y f y y s y y y y s s y q 6 s t s y y y y ",
"x d h h f y l j c y d h n s t w 8 5 w y , 8 < < w w 8 8 w 6 8 y w 2 6 e 8 w 5 , > 8 8 9 9 9 s s y g s b h h V g j j j j s c s x ",
"5 5 5 8 s q a 8 w 6 y 8 w 5 5 5 5 5 t 6 6 a t g s 0 t t s d s a u s v b n x m n S Z d s t e s t t t 7 0 5 5 0 , 0 - < > 5 , > 5 ",
"5 5 6 5 , 6 a 6 u d u 6 u t u p d s 7 s a 0 5 5 6 6 6 5 e 5 6 t , 5 5 5 @ * : , - 5 7 t a 8 5 5 a 6 6 a 5 t t t t d e u u t t 5 ",
"5 5 5 > 5 5 5 3 : % : 5 : - @ - - = - : , 5 > 5 w t > 6 > 5 5 * : 5 4 6 t t , 6 8 ; ; : * : : > * & > > , = > : 3 o - - $ : > > ",
"                                                                                                                                ",
"6 t t w 0 t 5 t 6 6 e 6 w d t t t t 5 t 9 s s 0 t d 6 d t t 5 a 6 t 6 a t , t t 5 ; : : > 4 4 6 3 4 , t 5 5 5 > a 5 t 5 5 6 7 8 ",
"d z x x b m x d n k f x x y s x q d d x y y b d h d g h Z Z f Z x x Z m x m b b x n k h g f b b b x x Z n m m m m v m v m m v C ",
"u u d s s w y t 8 7 t 7 w 4 t 6 6 , > 8 8 y w : 0 w 8 7 < 5 > > 6 < > < , < 6 0 8 w 6 8 s a x x s u s s x x s x x x x x u x u t ",
"s n x x d b l s m Z h m m m m l h m h m m x x m Z x d Z d x x g g h Z d m b x V h l j l d f y s y V y y y y y y y e 9 y u s u y ",
"A H H H b m d g b d x i x z x x h i g u z x u z y x c c j m L A P F S S m L L b m m m n b m m h m m m x m m v m m L A F L Z H L ",
"H H L L L m x C P H Z L L T I L L P I R ^ ) I ) ) R L U L Z m m l x b c c b Z b Z m v m m Z m S H A L L Z H U H L F U F U m L A ",
"H H I I S L S N v H m B v L m N N S H B l m L S A P S D K ~ P K P P I I Y U A H G P Y D J P J P D G S L P H G Y S P Y L I I Y U ",
"[ Y P Y [ I _ / ` ^ ` ( / _ _ ` ) ^ Y ^ ( ( Q ~ ~ I ^ P G G L S P P G Z P D P P ^ K P P P J P I P H Y G Y Y P L S L A m N m S L ",
"A m F Z m L B L L P N N N F v b c C x C C b x x Z c x v c L Z Z G L P T T I L U B L J B H L B L U L Z S Z Z C m Z L L L H T S P ",
"A H A b n c x z i w g u u g x m Z m h V x V b m S D m B H k L n A b m x m c m L H H L K L L S A L I I K L J L J J J F L L C k A ",
"t y t d d s t u x d x x n L N m k m f Z V m s x y 9 w w < 1 > : 6 w 7 5 6 w > 2 5 , @ # O # 5 # # > @ 5 5 @ @ # O # # > 5 8 5 8 ",
"8 , 6 > & - > > & % * @ - - * & > & > > 6 5 5 w y h s m n N m N L v B m m m n m x m m N N N M M b n C x n g n h d b g d y u y t ",
"5 5 t 4 t t d t t 0 e u u r u t d t h g s w t a a 0 6 , 0 , 9 5 : : 5 < , , , 5 5 6 5 6 , 6 5 t t e t d b b d l s a t , 7 1 7 3 ",
"4 5 5 7 t t t t s p s d 6 e 6 t t 6 5 0 5 > 5 5 6 , 6 6 t s 0 a d s 8 s 0 0 0 t 6 6 4 : 5 * > > 7 4 - $ - + % % o - * > > > > > ",
"5 6 5 5 > 6 4 5 4 > > : , * 3 5 3 6 > 0 0 y 0 d 6 t 4 5 5 , 5 , 5 t 5 6 4 > , 3 # 5 5 5 t e 0 e , 0 9 5 t t 9 9 9 i s 9 9 8 8 7 ",
"                                                                                                                                ",
", * : - * - , > > > 5 5 3 : O 3 O 3 3 6 5 : 4 4 3 : : : : 3 : 3 : 6 @ 5 : # : : @ 3 : $ : - & % % - % % @ : @ @ O $ - o o @ o $ ",
"n A Z A b C n Z b b x Z L C Z A A m m L Z A H A L T n m l Z J Z m x d m x x n n v b n n b A m M n S S S C Z S L H H L L S Z S H ",
"e q 8 8 w s s u y d s t y a h b y x s y s s y t s t 8 w w 8 = 8 9 t w 2 5 w 9 y r r 8 y y 8 y y u 8 8 y r 8 w 8 5 5 , , 1 8 7 8 ",
"c C n C k f j d j j l h h m d i g e y u y s y u x x s x d b n m m h b n m S A m A V C m L m n A j m h k d b k C n k f k h h b j ",
"s y i u s c c x x z h k x x m A H Z Z n m Z m C b V y x x y g i u s z z s t y y z y y w 7 u y y h c x h h b b m x h b d u d h s ",
"I T ) ) T ! Y I U T Z L L Z c c c c c b c Z c c n m Z Z L F U T T L T ) ) I T I U ) R ) Y ) ) L U E D ! P Z L A m T P P J I P P ",
"b m n l x c v v v m S L S ~ ^ ) ^ I ) ^ Y ) R ^ I ^ ) T I I Z L L N m m n b L H L A m H A S L m P D P P G S L P I I L P A L Z Z ",
") ) ^ ` [ ) R ) R T T T U Y P L T ) R L I T U ~ Q U ) ) } }  .} `  .} } } ) R ) ) ~ ) ) [ ! T Y P J D N S U U L Y T Y ^ ) R ^ ^ ",
"T ! T I Y T K H G L Z L N m Z v h v v v v h v v c x x x x u x s v m m H N I J J I I I K Q ! R T P Q P D Y L S D H I I H U U I I ",
"I T I L U L R U T T ) T ! { ) ) ) ! ^ [ | [ { { ) ! ) ! T T T T S Y m Z v v N S m f b s b V Z V Z L J E L I K Y L L J L L L P P ",
"m m v b b Z d x h i u u y e w w 9 a e w 2 > 2 w e r r u V s h m m N K P U I T L I W ) ^ ^ ^ ^ ^ ^ I H Y H H m m m H H L L B H m ",
"d d x y d w s f x x x s y x f x x d x v m c j x m d g u s 0 q 1 1 , 2 > 9 9 e 6 4 6 > > 3 # # 5 5 > e w y x x s V y e r y s u u ",
"t t a w 0 w 5 6 6 > 8 w 0 0 w 0 7 w w 8 8 7 0 < 0 w 8 a g y y i g y s s x u u u b h v x v v m m j x x y x s x a s u i u s u t t ",
"# # # # 3 # @ 5 5 a 6 a 5 a a t 6 t t 5 t d t g d h d d h d t d d d d 6 t t t 5 t 5 > : : , # : , : # , # o @ O O @ @ . o o @ @ ",
"s s w y d x b x d d w t d d d t u d 6 t 5 6 > 6 4 - $ - $ - @ : - @ - % @ : - > : 5 , t 5 t w f u d f x f b g x s h x n m n x x "
};
