/* XPM */
static char *_540562849258[] = {
/* columns rows colors chars-per-pixel */
"64 64 78 1 ",
"  c #574C3D",
". c #8A6D46",
"X c #8E7444",
"o c #8E734B",
"O c #907647",
"+ c #947A46",
"@ c #95764A",
"# c #98774F",
"$ c #967C4B",
"% c #987E4F",
"& c #957A53",
"* c #9B7E53",
"= c #A07F56",
"- c #9C824D",
"; c #9D8354",
": c #9E835B",
"> c #A08656",
", c #A48A55",
"< c #A2865B",
"1 c #A88759",
"2 c #A58B5C",
"3 c #AB8C5D",
"4 c #AC925D",
"5 c #A28760",
"6 c #A88760",
"7 c #A68B64",
"8 c #AA8E62",
"9 c #AA8F68",
"0 c #B08F61",
"q c #B18F68",
"w c #AD9364",
"e c #AE936C",
"r c #B29565",
"t c #B59B66",
"y c #B3956B",
"u c #B8976C",
"i c #B59B6C",
"p c #BA9D6E",
"a c #B69B74",
"s c #BD9D74",
"d c #BA9F78",
"f c #BDA36E",
"g c #BEA475",
"h c #BFA47C",
"j c #C09F77",
"k c #C09F78",
"l c #C1A577",
"z c #C5AB76",
"x c #C4A67D",
"c c #C8A67C",
"v c #C6AC7D",
"b c #CBAD7E",
"n c #CEB47F",
"m c #C8A780",
"M c #C6AB84",
"N c #C9AE82",
"B c #D0AF81",
"V c #D1AF88",
"C c #CDB385",
"Z c #CEB38C",
"A c #D1B586",
"S c #D6BC87",
"D c #D2B68A",
"F c #D8B789",
"G c #D6BC8D",
"H c #DCBC8E",
"J c #D9B790",
"K c #D7BC94",
"L c #DABE92",
"P c #DDC38E",
"I c #DEC495",
"U c #E5C496",
"Y c #E5CB96",
"T c #E1C598",
"R c #E8C799",
"E c #E6CC9D",
"W c #EDCC9E",
"Q c #E2C7A0",
/* pixels */
"                                                                ",
">>:>>>>>:>>2878178<>2<><&#*#*#*%%#*5&52;%@%**%%;%%>%%**=%>;;,:;,",
"www2wtuuiuigayeeaaeuwyayyyur8piieyuywuwwquyiuggaaurisgiszluggrgg",
"22272e38,2>;277y8w7eyuw7ww9u9uiigipuaiir7eyiee8e8wrrr<wr10222722",
"gvzgvgjzvclslgw4w2824w4328ww3w33332222w782222e2121*;;2>28887ewii",
"2228r282;2*34wwascgmhhgghmggsmvhgvvvvafiggglgeapsccvlvaguglaw227",
"nNxhNVFFNDZCJVNZNNbzNvNNNlaglMglgggzlgggMggglgZlcmglcmxlNBAvMNNv",
"CDNVZZvNCZGCDZNDCADDCCCCGGFIILZGCDIIGHLGIIIIULDKDGJKDLCCvvlvlvvC",
"CZCvCCDPDDvCCCMZMZZDNDCCNvvvvgvzvvglglgpgggggcgvlgzvvlvCvDZMGCCZ",
"ggmlspsyuaduidgdwfaipassggvhnNADNDDvDDVccDDCmAvBBVglghZgNllhMCMg",
"ggggidvvclcgdgugvgsvzgcmgggewiwwiuagguhaggguwyayalgmshsgaluitpgf",
"ryurrruwrryuwigwiiwuueuieuiipgfgaiuewwwe77wwpa8wuw2w2ruwwwwuuhur",
"aawfwwy44ww892><7<72;#;:*;:&2;;$>&:<2:w2www5iwueuaigpuywryw2822w",
"322,81888989918295qqr822>2>>*;*7>:,:5>>*;$&*;:2<-&-:*>9>52;7y832",
"rtftr8qrqq1qyy77re9rr928,227222242222<82;;;;*=5>,,;7>$%=>>5:;wtw",
"OOOO@@@#X#OOO##*oXXXo.%XXXo%%##&#%;:%##*$X&o:&>*;;%$->>&;#$$$$%O",
"                                                                ",
"%;;%@@@O@*>>>>>=*=:<2*:<,;:31e8>7<87<08r8wrrtiyrwwr0rw44>;>;>%+;",
"auiipalsgadiuiyapgrigavlgiguarduaiiywwyyw4wr2uy4wuruueweiilafslg",
";>1ww8wu8waweww3124w:2;&&2272,221>22iuwwwgflllgiuiiw7w772;-#<>$$",
"27222w28wwwraisgvVgggvvChmggggiiiwww28332242w24wwwwi8w2ewagiuiew",
"ggvzlvvcshgisuspuwpfcxghghgggvMgbvbCNCbbvNlchvcggvgggcggvggggaua",
"72yrptrjpgllMhMCMbmdglmddghgMnNNMgcmdhdvlgmlvMMhNvglClvbgfierwww",
"DCvbCNCCvCCNMcvvvMMgghsaggggtrwuw8gfigiifggifffugllMgllgpgfgClZC",
"NAvlzzzzbnicggnvgzCDCMCMZCGZGGPTUUEYEEUYEWWEYYIIEEILFHLLGDCCZCCN",
"ACCANvDCbNbNvMgcDDbNNmNMAVcgNggtdewgeggiwdargpdgdalmmAvvMCNNMCCC",
"wrartgapfyriipgfkkisdgulgggsvbCGGCCAvcvPZDNGNhgmvbuu8auauaeiwwwa",
"gaggbvilgvggiaafrduaueu8ewwiwww23wwwwwww2wwwyewuwwwweyr82e9wwwww",
"iiuiiwssawiiay42222w*2>17222222w2,2222;,;22332wewyeapiarjjppupyu",
";2>2w98222w22:::>:w5<98uy87weteertagaggfllry88y88w16>>8>>%*=2*;:",
"2><>>595ryr5r7wrwr2w98>><:5>2>522;2;o#*;%>2293;>9<<9>8243rw4r23;",
";<<*<>:*-O-*-$-+%*#%>:*>73:<=>>*-:>:8w;:>>-%#****%=*>%<$*O-+-*;;",
"                                                                ",
"28882w;75<w:8r882w;37qq82y5r77;927<97>73>*%%=>=5*:;8>>>>9>22,711",
"ituiggiigaiiiwuu9iiiwwaiuiypvgagiugliggiigaiuaidaifgflglgglfglpg",
"wwwee2w22>722:721;;22w2;722<>1;;5>>>;>272222e7iiwweuiawiiiiiwiw8",
"wafiiusegguggggjiguggiiggiiguuiuyiguggiausssiuwewawwwwwww32wwwww",
"hCvvdgiuapiyitiiurywtiwtwipspgMvVcvcgbMggggsaggigggaggfglMMcMvvv",
"vNMvMgpjnvlMvADMvZDDLLCLLDnVNllfsiilpalfglflgllmNmNMlMnMbmZmNgZh",
"NvCCvlvllvzzgvgzlvvzsgvvhCvvCGNCCCCCZMMvVNDbbCbCbNvvCvNZvCZNCCCZ",
"PZCZLCLHIGIPHKLUIGZGPPDGGCGNNVvvNCNvNbACGnCCCbCCCvZNZZNMvMMglglv",
"ghMglMzNvNvzcmfpssilkppalppgjNllNNNDDDNNvbvzvvzbVNlMllllgMnNvDmA",
"hvhgspptu2uwrypgggidiadgcbgzzazsxagigpgvvvvnMbvxvCCnMnvbbbcvNgah",
"ww8yrwwyiriigvllagagageuw342>,>>222222;,;;$*o&*&&;$;;#$@o&#;;2>7",
"2>:;%@;;%#$$$+@$>$;;2;22wuegglgvvgvgggggigzllczlisgusugiyiyuwr98",
">>8*8www8<4rrtrwr9uyy77w98:;6>1>%*>1,>;,:5:<><>88rwrpgyar99,11>;",
"<<12w774quyr:2578<>6>;,;2:523q29yt2q27672::%>*%;>=$+%.@@X$#*=*;>",
">>>>*<<;*;;;;**:*5>76y7r52::>>2;;7:<=*>*;:;22018>60>w3383rq8221<",
"                                                                ",
";#*%%%>*;;>;**&&&&&::;==*&***&*&-:*;%%%*O*%+%%%@@%@@X*XoX$$XOOOO",
"gmghsjjliifgMlghmggNgvMgvAggscvvgiigaeggggsggxljgzvvgvvmlvvvlxvv",
"28222ewwwue9w8iawieweww9e82222*2272,,23w442ww2w8w22w422222,>2112",
"sllsaaiijpsiiliru4wwwewwiieiaisgluaggvhggaxgMgsxpgiaiialapaaiiap",
"rwrwrppiitiaiigxzfgggggggarifwurrrirw7wwtww22wwwppiupdsgiiauwriy",
"DDGIDFVDNAgNNlsgjjgpjlsjllllvMMDDvAIPCDAMPDLDLGZVBBABlMMlDCANCCC",
"agssupfffgcMvFGGGCGGZSZGCGKCCCvvvlgggdvvMcgMhvvgNbAVMvvCCCvNMvll",
"KPPIIPZIJDDAMJNvDPZMADVJJCGIIEEIYRTTTPZIIJLKIDDDAzbcxZNCDDDPLKGG",
"ZGCCCCCvNvvvlglgiffffiffpiiiiwiefggvzCbvCCCnDFDCADCbZvvvvCCMMMCC",
"CZMMZNZMDDIAFIPPLFLIQIITLFIFDADDMVglflczgiayddldxMBBvDBVnMvMMNCC",
"ggggfgyfirwww2722932,;22344waeulgzCANCAmASGGGGGGGCbNbvgvgvznvvvg",
"tteww2eeiiiewuaiuaiflppuguuwe78,,,,;3242>:;;:&&;;;42wiiwaw44wuww",
"88927::92;227727>222227>7229u9wry8weiwwwfigiffggppiwieieywrwwrw7",
"&&;$;&-::w59:8e227728ywwyryrtrwwuyt588w>3:;;-*$*;;&;@oX.&ooXOXOO",
"ee29eiifte88tyr8wt<8;<::;%-$$$X%;X%@O%%*%>>2>77etwipiauawuigfgpi"
};
