/* XPM */
static char *_539846500950[] = {
/* columns rows colors chars-per-pixel */
"64 64 46 1 ",
"  c #7DD3FC",
". c #7BFDFD",
"X c #9AC6C6",
"o c #86D7FE",
"O c #87DAFE",
"+ c #8CDBFE",
"@ c #94DEFF",
"# c #99DEFE",
"$ c #A4DFFE",
"% c #8AE4E4",
"& c #86ECF0",
"* c #8DEEF0",
"= c #8AE2FF",
"- c #90EFF0",
"; c #93E2FF",
": c #9BE3FF",
"> c #97E8FF",
", c #9EE9FF",
"< c #82F1F1",
"1 c #A3E3FF",
"2 c #ACE5FF",
"3 c #A4EAFF",
"4 c #ACEBFF",
"5 c #B3E6FF",
"6 c #B9E7FF",
"7 c #B4EAFF",
"8 c #BBEBFF",
"9 c #A7F3FF",
"0 c #ACF1FF",
"q c #B4F1FF",
"w c #BCF3FF",
"e c #B4F8FF",
"r c #C4EDFF",
"t c #CAEFFF",
"y c #D0EFFF",
"u c #C4F4FF",
"i c #CDF1FF",
"p c #C6F8FF",
"a c #CCF9FF",
"s c #D4F3FF",
"d c #DBF5FF",
"f c #D0FAFF",
"g c #DFF8FF",
"h c #E1F7FF",
"j c #E3F9FF",
"k c #E9FBFF",
/* pixels */
".<<<<<<<<<<<<<<<<<<<<<<<<<<<<<<<<<&<<<<<<<<<<<<<<<<<.%.%.%.%.%..",
"<XXXXXXXXXXXXXXXXXXXXXXXXXXXXXXXXXXXXXXXXXXXXXXXXXXXXXXXXXXXXXX<",
".X%***************-**********---*-----*------**-********&****%X%",
"&X*ewwwuuwwuwuuupuuipppwupiupaaiuppaaappaaaaapuwwpwwpppwqqwpe%X.",
"&X*usiissssssssdgssssgdstssdshhhdsddhjddddjjjdsyfiisddsitrrsu*X<",
".X*psiysisssssdddddsddgsssgssgdhdddddhdsddgjjjdsssisfdssttrtw*X<",
"%X%pssssssdsssddhgddsgdsssssssdgddssdggddddjjjddsssssssfttruw*X<",
".X%pssyyyssdsfddhhhsssggstsssyygddsssdgsssddjkhssisissddyyiiw-X<",
"<X*ussssdssddssdhhhdyysgsitisiysdsssisdfsssdjjdgtssisdsssyryw*X&",
"<X*usysssssddssddhhddysssiriiitttyssiisdatysddddssisassddittw*X.",
"<X*udssssssssddsdhhdyyyysir8riu8riiiirisattsdddgssstsssssssyw*X%",
"<X*uddsssdsysddsddhddtrriir8rir68riir8ruittraddsssssiysssddiu%X.",
"<X*pdssssssiiddsddhddyrruur86886668uur88ritrrsdfdsssassssdssw*X<",
"<X-pgdssssssisssydddsyr8rr8865882278urw76uu88sddssssssssssdsw*X<",
"<X-pgddssssstusdsdssssr86688522622228ww828r86rssssssssisssssu*X<",
"<X-ahddssssstridsyyssii87556512612212777127875rdssasssssdssdw*X<",
"<X*agjgsisisirttstiiiirr66622$122#+@,4q4::7q43wissassdsssssdu*X<",
"<X*agjhssiisitrtiirtirtr6652$2111#@+@14q:;;3212udsssssdssssdu*X<",
"<X*agjhdsiriiir8rirrtrrr88552211$:@+o@3q4>O:7318issisddsssdsu*X<",
"<X-aghjgssrisir8rrrurrr886622$$1:$#+oO>4w3O+02:3isssyysdssssp-X<",
"<X-adghgdsriiir888rurrr88864221:11:@OO;:qq+ 14118sssssdddsssp*X<",
"<X-fgdghdsirtttr8688888688774211211;@O++2e3o:4425rsssysdddddu*X<",
"<X*fhddgdsittttt8667888767876421442:;@++3wq:@2775rtssysdddddp-X<",
"<X-fhddgdsstttii862268w8477877216771@+++;4u7@;2458tdstydgdddu-X<",
"<X*ajjddddsttttir85258887787887124q71:#@O7u81#2666rsssyssgddp*X&",
"<X*pdjjddssttttti86246wr7778wru7488741#@@2wu612886risssssdddp-X<",
"<X*pdghddssttttist8526rru778riru68888422$$8tu52r8rrrsssssddha*X<",
"<X*uddjgddsstttisir8578uu878urii88rr88652$5ys868rrrrtsssssdjp*X<",
"<X*usdjjdddyttttsiiu8688ir888rtirrrrir88$56tsyr6rtrrtssisssgp*X<",
"<X*usdhjhhdsttttissir888uur88ttsttrriurr56rrssyrrtirrisssssdp*X<",
"<X%psddjjjddyttyssssr888riirrtstsyttiirr6rrrssstuiiiiissssssi-X<",
"<X-pddhkkjjdyytyisdfir888ssr6tsygsttsttttrrrssssiiisitisyyisa-X<",
"&X-ahhjjkkjhdyysasfdsirr8isstttidsiisistyttttssdsssssyssssddr*X&",
"<X-ahhhjkkjjdyysisdddstrrisstttsssssisttyyttyssdsssshsdyddddu-X<",
"<X-ahdddkjjkdssssisdddiirtsssttissssyssssssyssdddssddssydddyp-X<",
"<X-ajhgdjjkjhdsyissfddsitrtssitidsgssytsssssssddgdssdhdyddddp-X<",
"<X*pgjggggjjjjdssissddssttrysssissgdssissssssssdgsddshdysdddp*X<",
"<X-pdgdsddgkjgdssssssdsstrtysdssssssstysssssssddgghssddssssdu*X<",
"&X*ufgddsddgjjgssssisssdtttrsssissddsysyysdsssdghgdssdddssssu*X<",
"<X*wddddssdgjjjssisssssdttttisdssssgsssysssssssgghdsdddgstisu*X<",
"<X*uissdsssddjgdiisisssddtrtyysdssdsdysssysgdssghhhssssgsitiw*X<",
"<X*waissiiisdgddsssiisssgstttssdddddssdydsssdfsdghhdsssssirtw*X<",
"<X*wruaisitidgddsssisssdssstysgddsgdssssdssssddsdhhgyyytsiu8e*X<",
"<X*qrrrriirtssddssssissssgsyyssdddddgssysdsysddssdhhsyrriir87-X<",
".X*quu88uiirtsddsssissssssgytdddddggdsssssstssdssdhdssrrtur80*X.",
"%X*0wr886ur8rpdsdssssisssgssyyydddsghdssssssysssddddsit88rr63*X&",
".X&3888826r86rssssssssssssssyyddgddghgdsssssttidydydsst868883&X<",
"%X&,47qq,27855ufdsassssissgssyyhgghhhhdssysssrtdyyyysit865553&X<",
".X.O:47q::7721wissssssssssdsdydhjddgjjgsissssrttdytyiirr66521&X<",
"%X%O@34q:;;2434ufssssddsssssdyhhjhhggjgdsiiittrrtrrtirrr6655,&X<",
"<X&=o@3e3>O,4318issysssssddsddddjjhgjjjssitiitrrtrtrrrrrr662,&X<",
"<X&=oO;4w3OO44:2issssssgssssydhdhkjggjjgsirtsir8rrtuurrr8852,*X<",
"<X&=O+=:qq+ 1411ryssyssddsssgdhddkkhhhhhdiriiit888rrru8888723&X.",
".X&;;+++3w3O:4426rsssysgdgdssghhdhkkddghdstttirr6888888688673*X&",
"%X%-@+++3qq1;24726sssyygddddddhhhhhkjgdggsittttt86768876778w3&X<",
".X&,@+O@:7w7@;275rissyssggddddhhhydhjddgdsstrtisr622688w27784&X<",
"<X*31:@@O4p71:2866rsdsysddddddddhydhhhhddsyttttir65$788877870&X<",
"<X&022#@;2wu612888rtssysydhdddhdhhdhhhhdgsstttttir6256w87778e*X<",
"<X*08721118it22r8rrrissiddhddydghddhhhhdgssttttiat8527rur678e*X<",
"<X*q88772$6isr588rrrtsdsyyhhddddddyyyhhhgdssttttsit8578uu878q*X<",
"<X&9eq44314eww74qeq7qwuwruuppuuuupputrsiappwwqqwwwwq4300eq049*X<",
"<X%*****&******-*-**-*******--*****-**-*--****--**-********%&%X<",
"<XXXXXXXXXXXXXXXXXXXXXXXXXXXXXXXXXXXXXXXXXXXXXXXXXXXXXXXXXXXXXX.",
".<<<<<<<<<<<<<<<<<<<<<<<<<<<<<<<<<<<<<<<<<<<<<<<<<<<<<<<<<.%.&&."
};
